#!OML:ASF H:\Terrain\Patient Classification 1\Terrain2\Thursday\justin.ASF
:FULLY-SPECIFIED
:DEGREES
1084
root -6.23569 17.2201 -22.4297 1043.86 -86.6069 -323.377
lowerback 1.95569 0.0707334 -1.25218
upperback 1.45624 0.0391585 2.75931
thorax 0.394083 -0.0161621 3.53743
lowerneck -14.7227 -0.896175 -9.23438
upperneck 26.5292 0.497879 0.788421
head 11.0183 -0.794099 1.88328
rclavicle -2.18663e-015 1.59028e-015
rhumerus -32.496 -17.3246 -74.4679
rradius 21.3672
rwrist -5.97006
rhand -21.0458 12.4852
rfingers 7.12502
rthumb 5.33009 -17.4278
lclavicle -2.18663e-015 1.59028e-015
lhumerus -36.1302 5.40289 83.609
lradius 37.9249
lwrist 6.62157
lhand -19.3478 20.8286
lfingers 7.12502
lthumb 6.96941 50.6938
rfemur -24.5048 -2.62122 18.9607
rtibia 26.6256
rfoot -1.45046 7.54857
rtoes 10.0445
lfemur 9.77877 -1.17848 -21.6713
ltibia 25.6289
lfoot -3.10189 -12.753
ltoes 1.9501
1085
root -6.36791 17.2387 -22.4293 1049.51 -86.6332 -329.099
lowerback 2.09254 0.00935878 -0.660742
upperback 1.37606 -0.03369 2.79378
thorax 0.239613 -0.0471221 3.2401
lowerneck -14.7466 -0.847128 -8.94095
upperneck 26.668 0.560033 0.528603
head 11.0735 -0.776422 1.74831
rclavicle -2.98177e-015 1.51076e-014
rhumerus -32.5877 -17.3861 -74.4029
rradius 21.4998
rwrist -5.89197
rhand -20.657 12.528
rfingers 7.12502
rthumb 5.70548 -17.3752
lclavicle -2.98177e-015 1.51076e-014
lhumerus -36.3742 5.43138 83.5647
lradius 37.1967
lwrist 6.65009
lhand -19.1832 21.072
lfingers 7.12502
lthumb 7.12829 50.9319
rfemur -24.0716 -2.61632 19.2787
rtibia 26.8978
rfoot -2.08249 7.12258
rtoes 10.7603
lfemur 9.16493 -1.4471 -21.2839
ltibia 27.3835
lfoot -1.56572 -12.6689
ltoes 4.70914
1086
root -6.50415 17.2365 -22.4697 1051.87 -87.1962 -331.717
lowerback 2.28771 0.219283 -0.508231
upperback 1.42018 0.246261 2.9116
thorax 0.158583 0.0922975 3.27012
lowerneck -14.8965 -0.867344 -8.79581
upperneck 26.8623 0.513829 0.514903
head 11.1785 -0.792776 1.71422
rclavicle -9.93923e-016 -6.36111e-015
rhumerus -32.6774 -18.1923 -74.2448
rradius 21.4365
rwrist -5.19925
rhand -20.0471 12.5663
rfingers 7.12502
rthumb 6.2943 -17.3202
lclavicle -9.93923e-016 -6.36111e-015
lhumerus -36.5136 5.57493 83.5506
lradius 36.3337
lwrist 5.95004
lhand -19.078 21.7049
lfingers 7.12502
lthumb 7.22989 51.5614
rfemur -23.4248 -1.49016 19.7893
rtibia 27.1531
rfoot -2.54718 6.76266
rtoes 10.9401
lfemur 8.79442 -0.81466 -20.5142
ltibia 29.2193
lfoot -0.157456 -12.9173
ltoes 4.47975
1087
root -6.63485 17.2402 -22.4856 1059 -87.4646 -338.808
lowerback 2.21959 0.411546 0.0803609
upperback 1.35544 0.512908 2.9076
thorax 0.119165 0.229553 2.92817
lowerneck -14.8636 -1.037 -8.7461
upperneck 26.9226 0.19672 0.725165
head 11.2087 -0.906108 1.74005
rclavicle 7.95139e-016 -1.03368e-014
rhumerus -32.8119 -19.2622 -73.9566
rradius 21.3146
rwrist -4.68273
rhand -19.9467 12.97
rfingers 7.12502
rthumb 6.39128 -16.9136
lclavicle 7.95139e-016 -1.03368e-014
lhumerus -36.5983 5.09373 83.8042
lradius 35.4575
lwrist 5.92447
lhand -19.9542 22.7031
lfingers 7.12502
lthumb 6.38399 52.5869
rfemur -23.0546 -1.16917 20.3206
rtibia 27.2323
rfoot -2.6055 7.02919
rtoes 10.7139
lfemur 8.02775 -0.483849 -19.8464
ltibia 31.0252
lfoot 1.51856 -13.0668
ltoes 4.36316
1088
root -6.76316 17.2452 -22.502 1063.22 -87.5357 -343.067
lowerback 2.24183 0.418696 0.397158
upperback 1.32383 0.528153 2.92105
thorax 0.0762767 0.238701 2.76292
lowerneck -14.9257 -1.03073 -8.52269
upperneck 26.9844 0.176784 0.637733
head 11.2446 -0.905598 1.66808
rclavicle 1.14301e-015 -2.94201e-014
rhumerus -32.6583 -19.2838 -74.0451
rradius 21.3292
rwrist -5.04756
rhand -20.2629 13.413
rfingers 7.12502
rthumb 6.08597 -16.4796
lclavicle 1.14301e-015 -2.94201e-014
lhumerus -36.8834 4.96033 84.0738
lradius 34.8233
lwrist 6.73278
lhand -21.2561 23.7982
lfingers 7.12502
lthumb 5.12711 53.7162
rfemur -22.5835 -1.0819 20.6309
rtibia 27.2426
rfoot -2.6044 7.16698
rtoes 10.7654
lfemur 7.29073 -0.416532 -19.4525
ltibia 32.8486
lfoot 3.53311 -12.9141
ltoes 6.83455
1089
root -6.89764 17.2643 -22.5185 1067.24 -87.6813 -347.125
lowerback 2.21471 0.324702 0.639479
upperback 1.32061 0.40367 3.01264
thorax 0.0949451 0.175966 2.7238
lowerneck -15.0383 -0.956333 -8.81994
upperneck 27.0482 0.312254 0.866174
head 11.2835 -0.849213 1.82142
rclavicle -7.45443e-016 3.97569e-015
rhumerus -32.3739 -18.5831 -74.3813
rradius 21.4529
rwrist -5.50268
rhand -20.6675 13.3309
rfingers 7.12502
rthumb 5.69535 -16.5725
lclavicle -7.45443e-016 3.97569e-015
lhumerus -37.2565 5.40254 84.1308
lradius 34.2229
lwrist 6.63344
lhand -20.5674 23.9958
lfingers 7.12502
lthumb 5.79199 53.8966
rfemur -21.9635 -0.624908 20.8894
rtibia 27.0751
rfoot -2.68715 6.72503
rtoes 12.7596
lfemur 6.47073 -0.275369 -19.1017
ltibia 34.7222
lfoot 5.42631 -12.574
ltoes 8.21183
